# Blender v2.80 (sub 75) OBJ File: 'BackupBoysPistol.blend'
# www.blender.org
mtllib BackupBoysPistol.mtl
o Slider_BackupBoysPistol
v 0.625000 4.999999 -1.083332
v 0.625000 4.749999 -1.083332
v 0.250000 4.999999 -1.083332
v 0.250000 4.749999 -1.083332
v 0.250000 4.999999 -0.708332
v 0.250000 4.749999 -0.708332
v 0.625000 4.999999 -0.708332
v 0.625000 4.749999 -0.708332
v 0.250000 4.749999 -0.333332
v 0.625000 4.749999 -0.333332
v 0.625000 4.749999 -1.333332
v 0.250000 4.749999 -1.333332
v -1.000000 4.499999 0.250001
v 1.000000 4.500000 -1.749999
v 1.000000 2.750000 -1.749999
v -1.000000 4.500000 -1.749999
v -1.000000 2.750000 -1.749999
v -1.000000 4.499998 5.250001
v -1.000000 2.749998 5.250001
v 1.000000 4.499998 5.250001
v 1.000000 2.749998 5.250001
v -1.000000 4.499999 2.250001
v -1.000000 3.749999 2.250001
v 1.000000 3.749999 2.250001
v 1.000000 3.749999 0.250001
v -1.000000 3.749999 0.250001
v 0.000000 4.499999 2.250001
v 0.000000 4.499999 0.250001
v 0.000000 4.749999 2.250001
v 0.750000 4.749999 2.250001
v 0.750000 4.749999 0.250001
v 0.000000 4.749999 0.250001
v -0.750000 4.749998 5.250001
v 0.750000 4.749998 5.250001
v -0.750000 4.749999 2.250001
v -0.750000 4.749999 0.250001
v 0.750000 4.750000 -1.749999
v -0.750000 4.750000 -1.749999
v -0.750000 2.499998 5.250001
v -0.750000 2.500000 -1.749999
v 0.750000 2.499998 5.250001
v 0.750000 2.500000 -1.749999
v -0.750000 2.750000 -1.999999
v 0.750000 2.750000 -1.999999
v 0.750000 4.500000 -1.999999
v -0.750000 4.500000 -1.999999
v -0.750000 2.749998 5.500001
v 0.750000 2.749998 5.500001
v 0.750000 4.499998 5.500001
v -0.750000 4.499998 5.500001
v -0.750000 4.249999 2.250001
v -0.750000 3.249999 2.250001
v -0.750000 4.249999 0.250001
v -0.750000 3.249999 0.250001
v -0.500000 4.499999 2.250001
v 0.250000 4.499999 2.250001
v 0.250000 4.499999 0.250001
v -0.500000 4.499999 0.250001
v -0.250000 4.999998 4.750001
v -0.250000 4.749998 4.750001
v 0.250000 4.999998 4.750001
v 0.250000 4.749998 4.750001
v 0.250000 4.999998 4.500001
v 0.250000 4.749998 4.500001
v -0.250000 4.999998 4.500001
v -0.250000 4.749998 4.500001
v 0.250000 4.749999 4.125001
v -0.250000 4.749999 4.125001
v -0.250000 4.749998 5.000001
v 0.250000 4.749998 5.000001
v -0.250000 4.999999 -1.083332
v -0.250000 4.749999 -1.083332
v -0.625000 4.999999 -1.083332
v -0.625000 4.749999 -1.083332
v -0.625000 4.999999 -0.708332
v -0.625000 4.749999 -0.708332
v -0.250000 4.999999 -0.708332
v -0.250000 4.749999 -0.708332
v -0.625000 4.749999 -0.333332
v -0.250000 4.749999 -0.333332
v -0.250000 4.749999 -1.333332
v -0.625000 4.749999 -1.333332
vt 0.118280 0.000000
vt 0.118280 0.030108
vt 0.166667 0.000000
vt 0.166667 0.030108
vt 0.166667 0.000000
vt 0.166667 0.030108
vt 0.118280 0.000000
vt 0.118280 0.030108
vt 0.702162 0.833333
vt 0.702162 0.881720
vt 0.593485 0.833333
vt 0.593485 0.881720
vt 0.215054 0.030108
vt 0.215054 0.030108
vt 0.702162 0.030108
vt 0.702162 0.000000
vt 0.593485 0.030108
vt 0.593485 0.000000
vt 0.702162 0.000000
vt 0.702162 0.030108
vt 0.593485 0.000000
vt 0.593485 0.030108
vt 0.086021 0.030108
vt 0.086021 0.030108
vt 0.870968 0.000000
vt 0.870968 0.030108
vt 0.838710 0.000000
vt 0.838710 0.030108
vt 0.838710 0.000000
vt 0.838710 0.030108
vt 0.870968 0.000000
vt 0.870968 0.030108
vt 0.448582 0.161290
vt 0.448582 0.129032
vt 0.593485 0.161290
vt 0.593485 0.129032
vt 0.790323 0.030108
vt 0.790323 0.030108
vt 0.448582 0.030108
vt 0.448582 0.000000
vt 0.593485 0.030108
vt 0.593485 0.000000
vt 0.448582 0.000000
vt 0.448582 0.030108
vt 0.593485 0.000000
vt 0.593485 0.030108
vt 0.903226 0.030108
vt 0.903226 0.030108
vt 0.448582 0.000000
vt 0.448582 0.030108
vt 0.339905 0.000000
vt 0.118280 0.000000
vt 0.118280 0.030108
vt 0.166667 0.000000
vt 0.166667 0.030108
vt 0.166667 0.000000
vt 0.166667 0.030108
vt 0.118280 0.000000
vt 0.118280 0.030108
vt 0.448582 0.833333
vt 0.448582 0.881720
vt 0.339905 0.833333
vt 0.339905 0.881720
vt 0.448582 0.000000
vt 0.448582 0.030108
vt 0.339905 0.000000
vt 0.215054 0.030108
vt 0.215054 0.030108
vt 0.448582 0.030108
vt 0.339905 0.030108
vt 0.448582 0.030108
vt 0.339905 0.030108
vt 0.086021 0.030108
vt 0.086021 0.030108
vt 0.032258 0.060217
vt 0.032258 0.270976
vt 0.290323 0.060217
vt 0.231227 0.709677
vt 0.231227 0.451613
vt 0.810839 0.709677
vt 0.810839 0.451613
vt 0.290323 0.030108
vt 0.290323 0.060217
vt 0.548387 0.030108
vt 0.548387 0.060217
vt 0.521033 0.709677
vt 0.521033 0.451613
vt 0.738388 0.709677
vt 0.738388 0.451613
vt 0.303679 0.451613
vt 0.303679 0.064516
vt 0.738388 0.064516
vt 0.303679 0.967742
vt 0.303679 0.709677
vt 0.738388 0.967742
vt 0.032258 0.030108
vt 0.935484 0.030108
vt 0.032258 0.060217
vt 0.935484 0.060217
vt 0.032258 0.030108
vt 0.290323 0.030108
vt 0.548387 0.060217
vt 0.935484 0.060217
vt 0.548387 0.030108
vt 0.935484 0.030108
vt 0.032258 0.301084
vt 0.935484 0.270976
vt 0.935484 0.301084
vt 0.935484 0.270976
vt 0.935484 0.301084
vt 0.032258 0.270976
vt 0.032258 0.301084
vt 0.303679 0.064516
vt 0.303679 0.967742
vt 0.738388 0.064516
vt 0.738388 0.967742
vt 0.000000 0.270976
vt 0.000000 0.270976
vt 0.738388 0.270976
vt 0.738388 0.301084
vt 0.303679 0.270976
vt 0.303679 0.301084
vt 0.000000 0.060217
vt 0.000000 0.060217
vt 0.303679 0.060217
vt 0.303679 0.030108
vt 0.738388 0.060217
vt 0.738388 0.030108
vt 0.967742 0.270976
vt 0.967742 0.270976
vt 0.303679 0.270976
vt 0.738388 0.301084
vt 0.738388 0.270976
vt 0.303679 0.301084
vt 0.967742 0.060217
vt 0.967742 0.060217
vt 0.738388 0.060217
vt 0.303679 0.030108
vt 0.303679 0.060217
vt 0.738388 0.030108
vt 0.000000 0.000000
vt 0.000000 0.000000
vt 0.290323 0.090325
vt 0.290323 0.210759
vt 0.548387 0.090325
vt 0.548387 0.210759
vt 0.376130 0.709677
vt 0.376130 0.451613
vt 0.593485 0.709677
vt 0.593485 0.451613
vt 0.290323 0.060217
vt 0.548387 0.060217
vn -1.0000 0.0000 0.0000
vn 1.0000 0.0000 0.0000
vn 0.0000 1.0000 0.0000
vn 0.0000 0.8321 0.5547
vn 0.0000 0.7071 -0.7071
vn 0.0000 0.8321 -0.5547
vn 0.0000 0.7071 0.7071
vn 0.0000 0.0000 -1.0000
vn 0.7071 0.7071 0.0000
vn -0.7071 0.7071 0.0000
vn -0.7071 -0.7071 -0.0000
vn 0.7071 -0.7071 -0.0000
vn 0.0000 -1.0000 -0.0000
vn -0.5774 -0.5774 -0.5774
vn 0.5774 -0.5774 -0.5774
vn 0.0000 -0.7071 -0.7071
vn 0.5774 0.5774 -0.5774
vn -0.5774 0.5774 -0.5774
vn 0.7071 0.0000 -0.7071
vn -0.7071 0.0000 -0.7071
vn -0.5774 -0.5774 0.5774
vn 0.5774 -0.5774 0.5774
vn 0.0000 -0.7071 0.7071
vn 0.5774 0.5774 0.5774
vn -0.5774 0.5774 0.5774
vn 0.7071 -0.0000 0.7071
vn 0.0000 -0.0000 1.0000
vn -0.7071 -0.0000 0.7071
usemtl Gray
s 1
f 3/1/1 4/2/1 5/3/1
f 4/2/1 6/4/1 5/3/1
f 7/5/2 8/6/2 1/7/2
f 8/6/2 2/8/2 1/7/2
f 7/9/3 1/10/3 5/11/3
f 1/10/3 3/12/3 5/11/3
f 5/3/1 6/4/1 9/13/1
f 10/14/2 8/6/2 7/5/2
f 10/15/4 7/16/4 9/17/4
f 7/16/4 5/18/4 9/17/4
f 1/19/5 11/20/5 3/21/5
f 11/20/5 12/22/5 3/21/5
f 12/23/1 4/2/1 3/1/1
f 2/8/2 11/24/2 1/7/2
f 61/25/2 62/26/2 63/27/2
f 62/26/2 64/28/2 63/27/2
f 65/29/1 66/30/1 59/31/1
f 66/30/1 60/32/1 59/31/1
f 65/33/3 59/34/3 63/35/3
f 59/34/3 61/36/3 63/35/3
f 63/27/2 64/28/2 67/37/2
f 68/38/1 66/30/1 65/29/1
f 68/39/6 65/40/6 67/41/6
f 65/40/6 63/42/6 67/41/6
f 59/43/7 69/44/7 61/45/7
f 69/44/7 70/46/7 61/45/7
f 70/47/2 62/26/2 61/25/2
f 60/32/1 69/48/1 59/31/1
f 71/49/8 72/50/8 73/51/8
f 73/52/1 74/53/1 75/54/1
f 74/53/1 76/55/1 75/54/1
f 77/56/2 78/57/2 71/58/2
f 78/57/2 72/59/2 71/58/2
f 77/60/3 71/61/3 75/62/3
f 71/61/3 73/63/3 75/62/3
f 77/64/8 78/65/8 75/66/8
f 75/54/1 76/55/1 79/67/1
f 80/68/2 78/57/2 77/56/2
f 80/69/4 77/64/4 79/70/4
f 77/64/4 75/66/4 79/70/4
f 71/49/5 81/71/5 73/51/5
f 81/71/5 82/72/5 73/51/5
f 82/73/1 74/53/1 73/52/1
f 72/59/2 81/74/2 71/58/2
usemtl grey
f 16/75/1 17/76/1 13/77/1
f 26/78/3 23/79/3 25/80/3
f 23/79/3 24/81/3 25/80/3
f 32/82/1 28/83/1 29/84/1
f 28/83/1 27/85/1 29/84/1
f 32/86/3 29/87/3 31/88/3
f 29/87/3 30/89/3 31/88/3
f 35/90/3 33/91/3 30/89/3
f 33/91/3 34/92/3 30/89/3
f 38/93/3 36/94/3 37/95/3
f 36/94/3 31/88/3 37/95/3
f 37/96/9 34/97/9 14/98/9
f 34/97/9 20/99/9 14/98/9
f 16/75/10 13/77/10 38/100/10
f 13/77/10 36/101/10 38/100/10
f 22/102/10 18/103/10 35/104/10
f 18/103/10 33/105/10 35/104/10
f 17/76/11 40/106/11 19/107/11
f 40/106/11 39/108/11 19/107/11
f 21/109/12 41/110/12 15/111/12
f 41/110/12 42/112/12 15/111/12
f 39/113/13 40/114/13 41/115/13
f 40/114/13 42/116/13 41/115/13
f 43/117/14 40/106/14 17/76/14
f 15/111/15 42/112/15 44/118/15
f 44/119/16 42/120/16 43/121/16
f 42/120/16 40/122/16 43/121/16
f 45/123/17 37/96/17 14/98/17
f 16/75/18 38/100/18 46/124/18
f 46/125/5 38/126/5 45/127/5
f 38/126/5 37/128/5 45/127/5
f 14/98/19 15/111/19 45/123/19
f 15/111/19 44/118/19 45/123/19
f 45/127/8 44/119/8 46/125/8
f 44/119/8 43/121/8 46/125/8
f 46/124/20 43/117/20 16/75/20
f 43/117/20 17/76/20 16/75/20
f 15/111/2 14/98/2 20/99/2 21/109/2
f 19/107/1 18/103/1 22/102/1 23/79/1
f 19/107/21 39/108/21 47/129/21
f 48/130/22 41/110/22 21/109/22
f 47/131/23 41/132/23 48/133/23
f 47/131/23 39/134/23 41/132/23
f 20/99/24 34/97/24 49/135/24
f 50/136/25 33/105/25 18/103/25
f 49/137/7 33/138/7 50/139/7
f 49/137/7 34/140/7 33/138/7
f 49/135/26 21/109/26 20/99/26
f 49/135/26 48/130/26 21/109/26
f 50/139/27 48/133/27 49/137/27
f 50/139/27 47/131/27 48/133/27
f 18/103/28 47/129/28 50/136/28
f 18/103/28 19/107/28 47/129/28
f 19/107/1 23/79/1 26/141/1 17/76/1
f 17/76/1 26/141/1 13/77/1
f 22/102/8 35/104/8 30/89/8 24/81/8 23/79/8
f 25/80/27 32/142/27 36/101/27 13/77/27 26/141/27
usemtl black
f 53/143/1 54/144/1 51/145/1
f 54/144/1 52/146/1 51/145/1
f 58/147/3 55/148/3 57/149/3
f 55/148/3 56/150/3 57/149/3
f 53/143/10 51/145/10 58/151/10
f 51/145/10 55/152/10 58/151/10
o Internals_BackupBoysPistol.010
v -0.875000 4.374999 2.250001
v -0.875000 3.374999 2.250001
v 0.125000 4.374999 0.250001
v 0.125000 3.374999 0.250001
v -0.875000 4.374999 0.250001
v -0.875000 3.374999 0.250001
v -0.625000 4.624999 2.250001
v 0.125000 4.624999 2.250001
v 0.125000 4.624999 0.250001
v -0.625000 4.624999 0.250001
v -0.500000 3.999999 2.500001
v -0.250000 4.433011 2.500001
v -0.375000 3.999998 5.500001
v -0.187500 4.324758 5.500001
v -0.500000 3.999998 5.750001
v -0.250000 4.433010 5.750001
v -0.375000 3.999998 5.750001
v -0.187500 4.324758 5.750001
v 0.250000 4.433011 2.500001
v 0.187500 4.324758 5.500001
v 0.250000 4.433010 5.750001
v 0.187500 4.324758 5.750001
v 0.500000 3.999999 2.500001
v 0.375000 3.999998 5.500001
v 0.500000 3.999998 5.750001
v 0.375000 3.999998 5.750001
v 0.250001 3.566987 2.500001
v 0.187500 3.675239 5.500001
v 0.250001 3.566986 5.750001
v 0.187500 3.675239 5.750001
v -0.250000 3.566987 2.500001
v -0.187500 3.675239 5.500001
v -0.250000 3.566986 5.750001
v -0.187500 3.675239 5.750001
v 0.400000 3.999998 5.600001
v 0.000000 3.999998 5.600001
v 0.200000 3.653587 5.600001
v -0.200000 3.653587 5.600001
v -0.400000 3.999998 5.600001
v -0.200000 4.346410 5.600001
v 0.200000 4.346410 5.600001
vt 0.557259 0.075271
vt 0.557259 0.195705
vt 0.267453 0.075271
vt 0.267453 0.195705
vt 0.290323 0.075271
vt 0.290323 0.195705
vt 0.548387 0.075271
vt 0.548387 0.195705
vt 0.290323 0.045163
vt 0.557259 0.045163
vt 0.339905 0.045163
vt 0.339905 0.709677
vt 0.339905 0.451613
vt 0.557259 0.709677
vt 0.557259 0.451613
vt 0.548387 0.045163
vt 0.580645 0.120434
vt 1.000000 0.120434
vt 0.580645 0.068284
vt 1.000000 0.068284
vt 0.376130 0.120434
vt 0.412356 0.120434
vt 0.466695 0.081322
vt 0.448582 0.068284
vt 1.000000 0.120434
vt 0.967742 0.120434
vt 1.000000 0.081322
vt 0.967742 0.081322
vt 0.448582 0.419355
vt 0.448582 0.000000
vt 0.593485 0.000000
vt 0.593485 0.419355
vt 0.593485 0.068284
vt 0.575372 0.081322
vt 0.466695 0.000000
vt 0.466695 0.032258
vt 0.575372 0.032258
vt 0.575372 0.000000
vt 0.580645 0.068284
vt 1.000000 0.068284
vt 0.580645 0.120434
vt 1.000000 0.120434
vt 0.629711 0.120434
vt 0.665937 0.120434
vt 1.000000 0.081322
vt 0.967742 0.081322
vt 1.000000 0.120434
vt 0.967742 0.120434
vt 1.000000 0.172583
vt 0.580645 0.172583
vt 0.593485 0.172583
vt 0.575372 0.159546
vt 0.967742 0.159546
vt 1.000000 0.159546
vt 0.593485 0.419355
vt 0.593485 0.000000
vt 0.448582 0.419355
vt 0.448582 0.000000
vt 0.466695 0.159546
vt 0.448582 0.172583
vt 0.575372 0.000000
vt 0.575372 0.032258
vt 0.466695 0.000000
vt 0.466695 0.032258
vt 0.580645 0.172583
vt 1.000000 0.172583
vt 1.000000 0.159546
vt 0.967742 0.159546
vt 0.636956 0.120434
vt 0.521033 0.120434
vt 0.578995 0.162153
vt 0.463072 0.162153
vt 0.405111 0.120434
vt 0.463072 0.078714
vt 0.578995 0.078714
vn 0.0000 0.0000 -1.0000
vn -1.0000 0.0000 0.0000
vn 0.0000 1.0000 0.0000
vn -0.7071 0.7071 0.0000
vn -0.8660 0.5000 0.0000
vn 0.0000 0.0000 1.0000
vn 0.8660 -0.5000 0.0000
vn 0.0000 -1.0000 0.0000
vn 0.8660 0.5000 0.0000
vn -0.8660 -0.5000 0.0000
usemtl Gray
s 1
f 85/153/29 86/154/29 87/155/29
f 86/154/29 88/156/29 87/155/29
f 87/157/30 88/158/30 83/159/30
f 88/158/30 84/160/30 83/159/30
f 87/157/29 92/161/29 85/153/29
f 91/162/29 85/153/29 92/163/29
f 92/164/31 89/165/31 91/166/31
f 89/165/31 90/167/31 91/166/31
f 87/157/32 83/159/32 92/161/32
f 83/159/32 89/168/32 92/161/32
f 93/169/33 97/170/33 94/171/33
f 97/170/33 98/172/33 94/171/33
f 97/173/34 99/174/34 100/175/34
f 97/173/34 100/175/34 98/176/34
f 99/177/35 95/178/35 100/179/35
f 95/178/35 96/180/35 100/179/35
f 94/181/31 98/182/31 103/183/31
f 94/181/31 103/183/31 101/184/31
f 98/176/34 100/175/34 103/185/34
f 100/175/34 104/186/34 103/185/34
f 100/187/36 96/188/36 102/189/36
f 100/187/36 102/189/36 104/190/36
f 101/191/37 103/192/37 105/193/37
f 103/192/37 107/194/37 105/193/37
f 103/185/34 104/186/34 108/195/34
f 103/185/34 108/195/34 107/196/34
f 104/197/38 102/198/38 108/199/38
f 102/198/38 106/200/38 108/199/38
f 105/193/35 107/194/35 111/201/35
f 105/193/35 111/201/35 109/202/35
f 107/196/34 108/195/34 111/203/34
f 108/195/34 112/204/34 111/203/34
f 108/199/33 106/200/33 110/205/33
f 108/199/33 110/205/33 112/206/33
f 109/207/36 111/208/36 113/209/36
f 111/208/36 115/210/36 113/209/36
f 111/203/34 112/204/34 116/211/34
f 111/203/34 116/211/34 115/212/34
f 112/213/31 110/214/31 116/215/31
f 110/214/31 114/216/31 116/215/31
f 113/217/38 115/218/38 97/170/38
f 113/217/38 97/170/38 93/169/38
f 115/212/34 116/211/34 97/173/34
f 116/211/34 99/174/34 97/173/34
f 116/219/37 114/220/37 95/178/37
f 116/219/37 95/178/37 99/177/37
usemtl black
f 117/221/34 118/222/34 119/223/34
f 119/223/34 118/222/34 120/224/34
f 120/224/34 118/222/34 121/225/34
f 121/225/34 118/222/34 122/226/34
f 122/226/34 118/222/34 123/227/34
f 123/227/34 118/222/34 117/221/34
o Handle_BackupBoysPistol.020
v -0.320000 0.249999 3.750000
v -0.320000 -0.500001 3.750000
v 0.320000 0.249999 3.750000
v 0.320000 -0.500001 3.750000
v 0.320000 0.249999 0.750001
v 0.320000 -0.500001 0.750000
v -0.320000 0.249999 0.750001
v -0.320000 -0.500001 0.750000
v -0.320000 2.499999 4.125001
v 0.320000 2.499999 4.125001
v 0.320000 2.499999 3.500001
v 0.320000 -0.500001 3.125000
v -0.320000 2.499999 3.500001
v -0.320000 -0.500001 3.125000
v -0.770000 1.749999 0.250001
v -0.770000 -1.750001 -0.250000
v 0.770000 1.749999 0.250001
v 0.770000 -1.750001 -0.250000
v 0.630000 1.749999 -0.549999
v 0.630000 -1.750001 -1.050000
v -0.630000 1.749999 -0.549999
v -0.630000 -1.750001 -1.050000
v -0.630000 1.749999 1.050001
v -0.630000 -1.750001 0.550000
v 0.630000 1.749999 1.050001
v 0.630000 -1.750001 0.550000
v -0.160000 2.249999 2.500001
v -0.160000 -0.000001 2.250000
v 0.160000 2.249999 2.500001
v 0.160000 -0.000001 2.250000
v 0.160000 2.249999 1.500001
v 0.160000 -0.000001 1.250000
v -0.160000 2.249999 1.500001
v -0.160000 -0.000001 1.250000
v -0.750000 -2.000001 0.750000
v -0.750000 -2.500001 0.687500
v 0.750000 -2.000001 0.750000
v 0.750000 -2.500001 0.687500
v 0.750000 -2.000000 -1.250000
v 0.750000 -2.500000 -1.312500
v -0.750000 -2.000000 -1.250000
v -0.750000 -2.500000 -1.312500
v 0.000000 -2.000001 1.250000
v 0.000000 -2.500001 1.187500
v 0.000000 -2.000000 -1.750000
v 0.000000 -2.500000 -1.812500
v -0.600000 1.999999 1.150001
v -0.600000 -2.000001 0.700000
v 0.600000 1.999999 1.150001
v 0.600000 -2.000001 0.700000
v 0.600000 1.999999 -0.699999
v 0.600000 -2.000000 -1.150000
v -0.600000 1.999999 -0.699999
v -0.600000 -2.000000 -1.150000
v 0.000000 1.999999 1.600001
v 0.000000 -2.000001 1.150000
v 0.000000 2.000000 -1.149999
v 0.000000 -2.000000 -1.600000
v -0.750000 2.499999 4.250001
v -0.750000 1.999999 4.250001
v 0.750000 2.499999 4.250001
v 0.750000 1.999999 4.250001
v 0.750000 2.500000 -1.249999
v 0.750000 2.000000 -1.249999
v -0.750000 2.500000 -1.249999
v -0.750000 2.000000 -1.249999
v 0.000000 2.500000 -1.499999
v 0.000000 2.000000 -1.499999
v 0.000000 2.499999 4.500001
v 0.000000 1.999999 4.500001
vt 0.474664 0.331193
vt 0.474664 0.602169
vt 0.567402 0.331193
vt 0.567402 0.602169
vt 0.580645 0.331193
vt 0.548387 0.602169
vt 0.451613 0.331193
vt 0.419355 0.602169
vt 0.451613 0.331193
vt 0.419355 0.602169
vt 0.580645 0.331193
vt 0.548387 0.602169
vt 0.354839 0.843036
vt 0.346774 0.903253
vt 0.096774 0.843036
vt 0.088710 0.903253
vt 0.096774 0.843036
vt 0.088710 0.903253
vt 0.354839 0.843036
vt 0.346774 0.903253
vt 0.303679 0.903253
vt 0.303679 0.645161
vt 0.738388 0.903253
vt 0.738388 0.645161
vt 0.303679 0.653226
vt 0.303679 0.911290
vt 0.738388 0.653226
vt 0.738388 0.911290
vt 0.419355 0.843036
vt 0.411290 0.903253
vt 0.521033 0.580645
vt 0.521033 0.588710
vt 0.032258 0.843036
vt 0.024194 0.903253
vt 0.521033 0.967742
vt 0.521033 0.975806
vt 0.806452 0.301084
vt 0.806452 0.361301
vt 0.096774 0.301084
vt 0.096774 0.361301
vt 0.096774 0.301084
vt 0.096774 0.361301
vt 0.806452 0.301084
vt 0.806452 0.361301
vt 0.303679 0.193548
vt 0.303679 0.903253
vt 0.738388 0.193548
vt 0.738388 0.903253
vt 0.738388 0.301084
vt 0.738388 0.361301
vt 0.521033 0.301084
vt 0.521033 0.361301
vt 0.303679 0.301084
vt 0.303679 0.361301
vt 0.521033 0.935484
vt 0.521033 0.301084
vt 0.521033 0.361301
vt 0.738388 0.301084
vt 0.738388 0.361301
vt 0.303679 0.301084
vt 0.303679 0.361301
vt 0.521033 0.161290
vt 0.741935 0.572060
vt 0.741935 0.662386
vt 0.354839 0.572060
vt 0.354839 0.662386
vt 0.354839 0.572060
vt 0.354839 0.662386
vt 0.741935 0.572060
vt 0.741935 0.662386
vt 0.428295 0.645161
vt 0.428295 0.258065
vt 0.613771 0.645161
vt 0.613771 0.258065
vt 0.428295 0.258065
vt 0.428295 0.645161
vt 0.613771 0.258065
vt 0.613771 0.645161
vt 0.428295 0.301084
vt 0.428295 0.662386
vt 0.613771 0.301084
vt 0.613771 0.662386
vt 0.790323 0.301084
vt 0.709677 0.301084
vt 0.661290 0.662386
vt 0.613771 0.301084
vt 0.613771 0.662386
vt 0.428295 0.301084
vt 0.428295 0.662386
vt 0.709677 0.301084
vt 0.661290 0.662386
vt 0.790323 0.301084
vt 0.406452 0.361301
vt 0.348387 0.843036
vt 0.167742 0.361301
vt 0.109677 0.843036
vt 0.167742 0.361301
vt 0.109677 0.843036
vt 0.406452 0.361301
vt 0.348387 0.843036
vt 0.464516 0.361301
vt 0.406452 0.843036
vt 0.109677 0.361301
vt 0.051613 0.843036
vt 0.290323 0.391410
vt 0.225806 0.812928
vt 0.187097 0.391410
vt 0.122581 0.812928
vt 0.703611 0.391410
vt 0.703611 0.812928
vt 0.338455 0.391410
vt 0.338455 0.812928
vt 0.187097 0.391410
vt 0.122581 0.812928
vt 0.290323 0.391410
vt 0.225806 0.812928
vt 0.329032 0.812928
vt 0.329032 0.812928
vt 0.338455 0.391410
vt 0.338455 0.812928
vt 0.703611 0.391410
vt 0.393548 0.391410
vt 0.393548 0.391410
vn 0.0000 -0.1104 0.9939
vn 1.0000 0.0000 0.0000
vn -1.0000 0.0000 0.0000
vn 0.0000 1.0000 0.0000
vn 0.0000 -1.0000 -0.0000
vn 0.5517 -0.1034 0.8276
vn -0.5517 -0.1034 0.8276
vn 0.5517 0.1034 -0.8276
vn -0.5517 0.1034 -0.8276
vn 0.3162 0.0000 -0.9487
vn -0.3162 0.0000 -0.9487
vn 0.3162 0.0000 0.9487
vn -0.3162 0.0000 0.9487
vn 0.0000 -0.1240 0.9923
vn 0.0000 0.1240 -0.9923
vn 0.5976 -0.0896 0.7968
vn -0.5976 -0.0896 0.7968
vn 0.5976 0.0896 -0.7968
vn -0.5976 0.0896 -0.7968
vn 0.9847 0.0246 -0.1723
vn 0.0000 0.1414 -0.9899
vn -0.9847 0.0246 -0.1723
vn 0.0000 -0.1414 0.9899
vn 0.9847 -0.0246 0.1723
vn -0.9847 -0.0246 0.1723
usemtl Gray
s 1
f 150/228/39 151/229/39 152/230/39
f 151/229/39 153/231/39 152/230/39
f 152/232/40 153/233/40 154/234/40
f 153/233/40 155/235/40 154/234/40
f 156/236/41 157/237/41 150/238/41
f 157/237/41 151/239/41 150/238/41
f 160/240/40 161/241/40 162/242/40
f 161/241/40 163/243/40 162/242/40
f 164/244/41 165/245/41 158/246/41
f 165/245/41 159/247/41 158/246/41
f 164/248/42 158/249/42 162/250/42
f 158/249/42 160/251/42 162/250/42
f 159/252/43 165/253/43 161/254/43
f 165/253/43 163/255/43 161/254/43
f 166/256/44 167/257/44 160/240/44
f 167/257/44 161/241/44 160/240/44
f 158/246/45 159/247/45 166/256/45
f 159/247/45 167/257/45 166/256/45
f 158/249/42 166/258/42 160/251/42
f 159/252/43 161/254/43 167/259/43
f 162/242/46 163/243/46 168/260/46
f 163/243/46 169/261/46 168/260/46
f 168/260/47 169/261/47 164/244/47
f 169/261/47 165/245/47 164/244/47
f 164/248/42 162/250/42 168/262/42
f 165/253/43 169/263/43 163/255/43
f 184/264/40 185/265/40 186/266/40
f 185/265/40 187/267/40 186/266/40
f 188/268/41 189/269/41 182/270/41
f 189/269/41 183/271/41 182/270/41
f 183/272/43 189/273/43 185/274/43
f 189/273/43 187/275/43 185/274/43
f 186/276/48 187/277/48 190/278/48
f 187/277/48 191/279/48 190/278/48
f 190/278/49 191/279/49 188/280/49
f 191/279/49 189/281/49 188/280/49
f 189/273/43 191/282/43 187/275/43
f 192/283/50 193/284/50 184/285/50
f 193/284/50 185/286/50 184/285/50
f 182/287/51 183/288/51 192/283/51
f 183/288/51 193/284/51 192/283/51
f 183/272/43 185/274/43 193/289/43
usemtl grey
f 126/290/40 127/291/40 128/292/40
f 127/291/40 129/293/40 128/292/40
f 130/294/41 131/295/41 124/296/41
f 131/295/41 125/297/41 124/296/41
f 130/298/42 124/299/42 128/300/42
f 124/299/42 126/301/42 128/300/42
f 125/302/43 131/303/43 127/304/43
f 131/303/43 129/305/43 127/304/43
f 132/306/52 125/307/52 133/308/52
f 125/307/52 127/309/52 133/308/52
f 133/310/40 127/291/40 134/311/40
f 127/291/40 135/312/40 134/311/40
f 134/313/53 135/314/53 136/315/53
f 135/314/53 137/316/53 136/315/53
f 136/317/41 137/318/41 132/319/41
f 137/318/41 125/297/41 132/319/41
f 172/320/40 173/321/40 174/322/40
f 173/321/40 175/323/40 174/322/40
f 176/324/41 177/325/41 170/326/41
f 177/325/41 171/327/41 170/326/41
f 178/328/54 179/329/54 172/320/54
f 179/329/54 173/321/54 172/320/54
f 170/326/55 171/327/55 178/328/55
f 171/327/55 179/329/55 178/328/55
f 174/322/56 175/323/56 180/330/56
f 175/323/56 181/331/56 180/330/56
f 180/330/57 181/331/57 176/324/57
f 181/331/57 177/325/57 176/324/57
usemtl Wood
f 140/332/58 141/333/58 142/334/58
f 141/333/58 143/335/58 142/334/58
f 142/336/59 143/337/59 144/338/59
f 143/337/59 145/339/59 144/338/59
f 144/340/60 145/341/60 138/342/60
f 145/341/60 139/343/60 138/342/60
f 141/333/43 149/344/43 147/345/43 139/343/43 145/341/43 143/337/43
f 146/346/61 147/347/61 148/348/61
f 147/345/61 149/344/61 148/349/61
f 148/349/62 149/344/62 140/332/62
f 149/344/62 141/333/62 140/332/62
f 138/342/63 139/343/63 146/350/63
f 139/343/63 147/345/63 146/350/63
f 140/332/42 142/336/42 144/340/42 138/342/42 146/346/42 148/349/42
