# Blender v2.93.8 OBJ File: 'Station.blend'
# www.blender.org
mtllib Station.mtl
g Station_Cube
v 1.000000 0.375000 0.500000
v 1.000000 0.000000 0.500000
v -1.000000 0.375000 0.500000
v -1.000000 0.000000 0.500000
v 1.000000 0.375000 -0.500000
v 1.000000 0.000000 -0.500000
v -1.000000 0.375000 -0.500000
v -1.000000 0.000000 -0.500000
v 0.666667 0.375000 0.500000
v -0.666667 0.375000 0.500000
v -0.666667 0.375000 -0.500000
v 0.666667 0.375000 -0.500000
v -1.000000 0.937500 -0.500000
v -0.666667 0.937500 0.500000
v 0.666667 0.937500 -0.500000
v 1.000000 0.937500 -0.500000
v -0.666667 0.937500 -0.500000
v -0.833333 1.062500 -0.500000
v 0.833333 1.062500 -0.500000
v -0.833333 0.937500 0.500000
v 0.833333 0.937500 0.500000
v 0.666667 0.937500 0.500000
v 0.666667 1.187500 -0.500000
v -0.666667 1.187500 -0.500000
v -0.833333 1.187500 -0.500000
v 0.833333 1.187500 -0.500000
v 0.666667 1.187500 -0.200000
v -0.666667 1.187500 -0.200000
v -0.833333 1.187500 -0.200000
v 0.833333 1.187500 -0.200000
v -0.833333 1.237500 -0.500000
v -0.666667 1.437500 -0.500000
v 0.833333 1.237500 -0.500000
v 0.666667 1.437500 -0.500000
v 0.666667 1.437500 -0.200000
v -0.666667 1.437500 -0.200000
v -0.833333 1.237500 -0.200000
v 0.833333 1.237500 -0.200000
v 0.666667 0.375000 -0.200000
v -0.666667 0.375000 -0.200000
v 0.000000 1.437500 -0.200000
vt 0.109393 0.243262
vt 0.105003 0.263876
vt 0.100613 0.243262
vt 0.100613 0.229519
vt 0.100613 0.229519
vt 0.144513 0.243262
vt 0.153293 0.243262
vt 0.153293 0.229519
vt 0.153293 0.229519
vt 0.100613 0.243262
vt 0.109393 0.263876
vt 0.109393 0.243262
vt 0.404125 0.279125
vt 0.382491 0.248219
vt 0.404125 0.248219
vt 0.105003 0.268457
vt 0.100613 0.263876
vt 0.109393 0.273038
vt 0.373219 0.279125
vt 0.373219 0.279125
vt 0.144513 0.263876
vt 0.144513 0.243262
vt 0.148903 0.263876
vt 0.144513 0.263876
vt 0.153293 0.243262
vt 0.153293 0.263876
vt 0.373219 0.248219
vt 0.404125 0.248219
vt 0.148903 0.268457
vt 0.144513 0.273038
vt 0.148903 0.273038
vt 0.109393 0.273038
vt 0.105003 0.273038
vt 0.148903 0.273038
vt 0.144513 0.273038
vt 0.382491 0.279125
vt 0.373219 0.279125
vt 0.373219 0.248219
vt 0.382491 0.248219
vt 0.105003 0.273038
vt 0.148903 0.274870
vt 0.144513 0.282199
vt 0.109393 0.282199
vt 0.109393 0.282199
vt 0.126953 0.282199
vt 0.148903 0.274870
vt 0.144513 0.282199
vt 0.105003 0.274870
vt 0.105003 0.274870
vt 0.382491 0.279125
vt 0.382491 0.279125
vt 0.382491 0.263672
vt 0.109393 0.263876
vt 0.404125 0.279125
vt 0.373219 0.248219
vt 0.382491 0.248219
vn 0.0000 0.0000 1.0000
vn -1.0000 0.0000 0.0000
vn 0.0000 0.0000 -1.0000
vn 0.0000 -1.0000 0.0000
vn 1.0000 0.0000 0.0000
vn 0.0000 1.0000 0.0000
vn -0.5970 0.7960 0.0995
vn 0.9468 0.2805 0.1578
vn 0.5970 0.7960 0.0995
vn 0.0000 0.9417 0.3363
vn 0.7682 0.6402 0.0000
vn -0.7682 0.6402 0.0000
vn -0.9468 0.2805 0.1578
usemtl ShopTex
s off
f 10/1/1 20/2/1 3/3/1
f 3/3/2 8/4/2 4/5/2
f 12/6/3 5/7/3 6/8/3
f 2/9/4 8/4/4 6/8/4
f 10/1/1 3/3/1 4/5/1
f 5/7/5 2/9/5 6/8/5
f 7/10/3 17/11/3 11/12/3
f 9/13/6 40/14/6 10/15/6
f 20/2/7 18/16/7 13/17/7
f 18/16/3 24/18/3 17/11/3
f 9/13/2 15/19/2 12/20/2
f 15/21/3 5/7/3 12/6/3
f 9/22/1 21/23/1 22/24/1
f 1/25/8 16/26/8 21/23/8
f 11/27/5 14/28/5 10/15/5
f 3/3/2 13/17/2 7/10/2
f 19/29/3 23/30/3 26/31/3
f 21/23/9 16/26/9 19/29/9
f 20/2/10 28/32/10 29/33/10
f 22/24/10 30/34/10 27/35/10
f 15/19/2 27/36/2 23/37/2
f 19/29/5 30/34/5 21/23/5
f 17/38/5 28/39/5 14/28/5
f 18/16/2 29/33/2 25/40/2
f 27/35/1 38/41/1 35/42/1
f 32/43/6 36/44/6 41/45/6
f 18/16/3 7/10/3 13/17/3
f 5/7/3 19/29/3 16/26/3
f 35/42/11 33/46/11 34/47/11
f 37/48/12 32/43/12 31/49/12
f 24/18/3 31/49/3 32/43/3
f 29/33/2 31/49/2 25/40/2
f 39/50/1 35/51/1 41/52/1
f 28/32/1 37/48/1 29/33/1
f 23/30/3 33/46/3 26/31/3
f 26/31/5 38/41/5 30/34/5
f 32/43/3 12/6/3 11/12/3
f 10/1/1 14/53/1 20/2/1
f 3/3/2 7/10/2 8/4/2
f 6/8/3 8/4/3 11/12/3
f 8/4/3 7/10/3 11/12/3
f 11/12/3 12/6/3 6/8/3
f 2/9/4 4/5/4 8/4/4
f 4/5/1 2/9/1 9/22/1
f 2/9/1 1/25/1 9/22/1
f 9/22/1 10/1/1 4/5/1
f 5/7/5 1/25/5 2/9/5
f 7/10/3 18/16/3 17/11/3
f 9/13/6 39/50/6 40/14/6
f 18/16/3 25/40/3 24/18/3
f 9/13/2 22/54/2 15/19/2
f 15/21/3 19/29/3 5/7/3
f 9/22/1 1/25/1 21/23/1
f 1/25/5 5/7/5 16/26/5
f 11/27/5 17/38/5 14/28/5
f 3/3/13 20/2/13 13/17/13
f 19/29/3 15/21/3 23/30/3
f 20/2/10 14/53/10 28/32/10
f 22/24/10 21/23/10 30/34/10
f 15/19/2 22/54/2 27/36/2
f 19/29/5 26/31/5 30/34/5
f 17/38/5 24/55/5 28/39/5
f 18/16/2 20/2/2 29/33/2
f 27/35/1 30/34/1 38/41/1
f 41/45/6 35/42/6 34/47/6
f 34/47/6 32/43/6 41/45/6
f 35/42/11 38/41/11 33/46/11
f 37/48/12 36/44/12 32/43/12
f 24/18/3 25/40/3 31/49/3
f 29/33/2 37/48/2 31/49/2
f 36/56/1 28/39/1 41/52/1
f 28/39/1 40/14/1 41/52/1
f 40/14/1 39/50/1 41/52/1
f 28/32/1 36/44/1 37/48/1
f 23/30/3 34/47/3 33/46/3
f 26/31/5 33/46/5 38/41/5
f 32/43/3 34/47/3 12/6/3
g Glass_Cube.001
v 0.666667 0.375000 0.500000
v -0.666667 0.375000 0.500000
v 0.666667 1.104167 -0.066667
v -0.666667 0.937500 0.400000
v 0.666667 0.937500 0.400000
v -0.666667 1.104167 -0.066667
v -0.000000 1.104167 -0.066667
vt 0.837121 0.175281
vt 0.702348 0.279249
vt 0.702348 0.175281
vt 0.837121 0.279249
vt 0.837121 0.310054
vt 0.769734 0.310054
vt 0.702348 0.310054
vn 0.0000 0.1750 0.9846
vn -0.0000 0.9417 0.3363
usemtl ShopTexTransparent
s off
f 42/57/14 45/58/14 43/59/14
f 46/60/15 44/61/15 48/62/15
f 42/57/14 46/60/14 45/58/14
f 47/63/15 45/58/15 48/62/15
f 45/58/15 46/60/15 48/62/15
g BuyButton_Cube.002
v 0.666667 1.187500 -0.200000
v 0.666667 1.437500 -0.200000
v 0.666667 1.104167 -0.066667
v 0.000000 1.437500 -0.200000
v -0.000000 1.104167 -0.066667
vt 0.919922 0.770708
vt 0.919922 0.720302
vt 0.919922 0.787510
vt 0.500000 1.000000
vt 1.000000 0.500000
vt 1.000000 1.000000
vt 0.500000 0.500000
vn 1.0000 0.0000 0.0000
vn -0.0000 0.3714 0.9285
usemtl ShopTexGlow
s off
f 49/64/16 50/65/16 51/66/16
f 52/67/17 51/68/17 50/69/17
f 52/67/17 53/70/17 51/68/17
g InfoButton_Cube.003
v -0.666667 1.187500 -0.200000
v -0.666667 1.437500 -0.200000
v -0.666667 1.104167 -0.066667
v 0.000000 1.437500 -0.200000
v -0.000000 1.104167 -0.066667
vt 0.439453 0.630972
vt 0.439453 0.740122
vt 0.439453 0.658259
vt 0.000000 1.000000
vt 0.500000 0.500000
vt 0.500000 1.000000
vt 0.000000 0.500000
vn -1.0000 0.0000 -0.0000
vn -0.0000 0.3714 0.9285
usemtl ShopTexGlow
s off
f 56/71/18 55/72/18 54/73/18
f 55/74/19 58/75/19 57/76/19
f 55/74/19 56/77/19 58/75/19
